# xmcd CD database file
# Generated: Ter Abr 1 14:34:04 2003 by KSCD
# 
# Track frame offsets:
#       150
#       12585
#       26125
#       40831
#       53675
#       64897
#       75546
#       96136
#       108604
#       121414
#       135949
#       145811
#       161362
#       175325
#       187928
#       199039
#       212033
#       223224
#       235994
#       248900
#
# Disc length: 3476 seconds
#
# Revision: 2
# Processed by: cddbd v1.4PL0 Copyright (c) Steve Scherf et al.
# Submitted via: Kscd 1.3.3
#
DISCID=1c0d9214
DTITLE=Bo Diddley - The Essential Bo Diddley
DYEAR=1900
DGENRE=
TTITLE0=Bo Diddley
TTITLE1=I'm a man
TTITLE2=You can't judge a book by the cover
TTITLE3=Story of B Diddley
TTITLE4=Who do you love
TTITLE5=Mona (I need you baby)
TTITLE6=I can tell
TTITLE7=Road Runner
TTITLE8=Pretty Thing
TTITLE9=Say man
TTITLE10=Hey! Bo Diddley
TTITLE11=Cops and Robbers
TTITLE12=Before you accuse me
TTITLE13=Cadillac
TTITLE14=Diddley Daddy
TTITLE15=You don't love me (you don't care)
TTITLE16=Bring it to Jerome
TTITLE17=Pills
TTITLE18=Dearest Darling
TTITLE19=I'm looking for a woman
EXTD=
EXTT0=
EXTT1=
EXTT2=
EXTT3=
EXTT4=
EXTT5=
EXTT6=
EXTT7=
EXTT8=
EXTT9=
EXTT10=
EXTT11=
EXTT12=
EXTT13=
EXTT14=
EXTT15=
EXTT16=
EXTT17=
EXTT18=
EXTT19=
PLAYORDER=
